<?xml version="1.0" encoding="UTF-8"?>
<svg id="Layer_1" data-name="Layer 1" xmlns="http://www.w3.org/2000/svg" viewBox="0 0 32 32">
  <defs>
    <style>
      .cls-1 {
        fill: #fff;
      }
    </style>
  </defs>
  <circle cx="16" cy="16" r="15.97"/>
  <g>
    <path class="cls-1" d="M17.01,13.85h-6.22c.27,2,2.76,4.06,4.63,4.2.18.01.33.04.48.06h5.28c-.17-.84-.53-1.45-.97-2.04-.83-1.04-1.92-1.79-3.2-2.21Z"/>
    <path class="cls-1" d="M12.85,10.36c.06-.36.34-.8.73-1.04,1.93-1.21,4.25-.2,5.55,1.57.47.63.85,1.4,1.17,2.13h.65v-5.12h-5.69c-1.52-.01-2.85.9-3.68,2.13-.59.91-.95,1.91-.84,3h4.4c-1.03-.66-2.51-1.32-2.29-2.66Z"/>
    <path class="cls-1" d="M10.75,18.93v5.18h5.95c2.67,0,4.73-2.52,4.55-5.18h-4.19c.62.46,1.25.79,1.66,1.36.32.45.46.98.3,1.54-.12.41-.48.84-.96,1.08-2.64,1.36-5.8-1.46-6.63-3.98h-.69Z"/>
  </g>
</svg>